Coordinates
version=1
nRows=17
nColumns=40
inDegrees=yes

Units are S.I. units (second, meters, Newtons, ...)
Angles are in degrees.

endheader
time	pelvis_tilt	pelvis_list	pelvis_rotation	pelvis_tx	pelvis_ty	pelvis_tz	hip_flexion_r	hip_adduction_r	hip_rotation_r	knee_angle_r	knee_angle_r_beta	ankle_angle_r	subtalar_angle_r	mtp_angle_r	hip_flexion_l	hip_adduction_l	hip_rotation_l	knee_angle_l	knee_angle_l_beta	ankle_angle_l	subtalar_angle_l	mtp_angle_l	lumbar_extension	lumbar_bending	lumbar_rotation	arm_flex_r	arm_add_r	arm_rot_r	elbow_flex_r	pro_sup_r	wrist_flex_r	wrist_dev_r	arm_flex_l	arm_add_l	arm_rot_l	elbow_flex_l	pro_sup_l	wrist_flex_l	wrist_dev_l
     56.48750000	     -4.90741160	     -3.49758901	    -11.19882589	      0.91924042	      0.92600577	      0.49809516	     19.63255734	      2.46229803	     -8.14012905	     20.95266126	     20.95266126	      7.90015887	      0.68177850	     -2.86945366	      1.00768227	     -8.10711724	    -13.66790617	     26.58220087	     26.58220087	     17.00503206	    -12.63718860	     -0.99423935	     -9.37641625	      7.92545492	      0.46083059	     -9.57922000	    -15.45772076	    -15.21225561	     42.10948756	     45.98742156	      0.00000000	      0.00000000	     26.73731795	    -19.38419449	    -17.36191550	     81.38827847	     48.82516191	      0.00000000	      0.00000000
     56.50800000	     -4.93289665	     -3.56357108	    -10.75718641	      0.91946936	      0.92702193	      0.50354271	     18.82035592	      2.73246392	     -8.74624659	     20.40910946	     20.40910946	      8.28895176	      1.20828966	     -2.75331412	      2.03797511	     -8.95283640	    -13.12500812	     29.03830997	     29.03830997	     14.85838736	    -13.80898116	     -3.80637258	     -9.30637280	      7.82575368	      0.36478691	     -9.43248951	    -16.35221384	    -12.84032323	     44.80322951	     45.75734464	      0.00000000	      0.00000000	     25.79884081	    -18.77058653	    -17.49985560	     80.74214213	     48.77443580	      0.00000000	      0.00000000
     56.52850000	     -4.88253550	     -3.67006698	    -10.27212184	      0.91952996	      0.92802615	      0.50880292	     17.90973516	      3.06714895	     -9.23039728	     19.79930504	     19.79930504	      8.59248265	      1.41740208	     -2.71689003	      3.34646747	     -9.83832542	    -12.36963053	     32.14334295	     32.14334295	     13.60304866	    -14.72114137	     -4.10957521	     -9.35820816	      7.70434813	      0.53712114	     -8.49816738	    -16.70722890	    -12.71769160	     45.11081854	     45.74588808	      0.00000000	      0.00000000	     24.88083591	    -17.95497524	    -17.13295122	     80.27388640	     48.72952308	      0.00000000	      0.00000000
     56.54900000	     -4.85894555	     -3.76526773	     -9.72936090	      0.91935078	      0.92868878	      0.51374137	     17.12073214	      3.36134006	     -9.77831180	     19.32318865	     19.32318865	      8.95798723	      1.61988663	     -2.73749094	      4.97730447	    -10.68030849	    -11.39780126	     35.61074377	     35.61074377	     12.22245365	    -15.77437244	     -4.34958819	     -9.36786069	      7.61381649	      0.57289404	     -7.48950593	    -17.06426007	    -12.54799179	     45.41287633	     45.73288811	      0.00000000	      0.00000000	     23.72102833	    -17.18731281	    -16.75312307	     79.42944445	     48.67490138	      0.00000000	      0.00000000
     56.56950000	     -4.75486852	     -3.90245399	     -9.14941353	      0.91902397	      0.92910078	      0.51838830	     16.37223059	      3.66403575	    -10.31356601	     19.06744498	     19.06744498	      9.37723358	      1.72324265	     -2.80458418	      6.74009290	    -11.49266142	    -10.28895461	     39.32314750	     39.32314750	     10.85877077	    -16.85947649	     -4.34039478	     -9.45754257	      7.55734555	      0.60153378	     -6.32712828	    -17.40781916	    -12.34910964	     45.61605573	     45.72325519	      0.00000000	      0.00000000	     22.47102385	    -16.38618775	    -16.30392411	     78.31904174	     48.61055707	      0.00000000	      0.00000000
     56.59000000	     -4.71355600	     -3.95011108	     -8.52108046	      0.91839307	      0.92909435	      0.52257022	     15.88307719	      3.83549791	    -10.84380245	     19.09774390	     19.09774390	      9.94370141	      1.72903834	     -2.70438056	      8.96129837	    -12.03160471	     -8.80217986	     43.54560531	     43.54560531	     10.88293019	    -17.48605851	     -0.66748199	     -9.32592218	      7.43353666	      0.42278554	     -4.45485677	    -17.99727972	    -10.41837884	     44.03265173	     45.70260098	      0.00000000	      0.00000000	     21.41399662	    -15.78624781	    -15.40910881	     75.50033014	     48.44597322	      0.00000000	      0.00000000
     56.61050000	     -4.53146442	     -4.10704028	     -7.87219594	      0.91761933	      0.92882593	      0.52650352	     15.36731592	      4.11142203	    -11.22673283	     19.34932217	     19.34932217	     10.56977397	      1.36850825	     -2.68702535	     11.13934085	    -12.56966321	     -7.31264995	     47.75807959	     47.75807959	     11.02626779	    -18.00283912	      3.02555847	     -9.46458910	      7.42494533	      0.34363260	     -2.61341224	    -18.26466049	     -9.79719931	     42.90367877	     45.72833283	      0.00000000	      0.00000000	     20.17945544	    -15.06932521	    -14.55028671	     73.04461249	     48.30174720	      0.00000000	      0.00000000
     56.63100000	     -4.28822969	     -4.32124379	     -7.21158481	      0.91671613	      0.92820822	      0.53014599	     14.93869582	      4.43188526	    -11.50601354	     19.85898316	     19.85898316	     11.24680228	      0.71762232	     -2.68209385	     13.32456988	    -13.04555412	     -5.83435736	     51.85229795	     51.85229795	     11.41883376	    -18.41358329	      6.99554254	     -9.64722532	      7.47307768	      0.34688331	     -0.64350103	    -18.42092365	     -9.42362235	     41.51765958	     45.77634502	      0.00000000	      0.00000000	     19.05873941	    -14.33672255	    -13.39231233	     69.92885046	     48.13734096	      0.00000000	      0.00000000
     56.65150000	     -4.00761490	     -4.64792619	     -6.51790604	      0.91574734	      0.92711160	      0.53357496	     14.58775166	      4.84296966	    -11.83432301	     20.58057940	     20.58057940	     11.94231363	     -0.00520292	     -2.91528936	     15.37353990	    -13.65776952	     -4.57406595	     55.47039725	     55.47039725	     10.90856158	    -18.83400985	      7.73144619	     -9.93928606	      7.64347539	      0.22234070	      0.98004285	    -18.50084868	     -9.41394746	     41.58116368	     45.78442425	      0.00000000	      0.00000000	     17.38194430	    -13.54754430	    -12.67911648	     67.88215226	     48.03731034	      0.00000000	      0.00000000
     56.67200000	     -3.63570846	     -4.72915520	     -5.85919261	      0.91471508	      0.92589993	      0.53667444	     14.40931437	      5.05672734	    -11.55122830	     21.70165862	     21.70165862	     12.75733015	     -1.65457541	     -2.82367070	     17.35716762	    -13.74723597	     -3.27027100	     58.84524244	     58.84524244	     11.95231908	    -19.05533073	     12.22209354	    -10.11105785	      7.56729323	     -0.09569354	      3.65230474	    -18.27058073	     -8.98205082	     39.67249796	     45.85379948	      0.00000000	      0.00000000	     16.48479579	    -13.04263175	    -10.95332801	     62.46733282	     47.81319231	      0.00000000	      0.00000000
     56.69250000	     -3.14408394	     -5.02764062	     -5.18628727	      0.91374171	      0.92446735	      0.53959356	     14.04936890	      5.43540042	    -11.63153204	     22.78585241	     22.78585241	     13.68274448	     -2.70912126	     -2.57392050	     19.16448176	    -14.01956432	     -2.03740910	     61.83098240	     61.83098240	     13.35425297	    -19.19850871	     16.88020283	    -10.46702349	      7.64827600	      0.34635058	      5.97387115	    -18.22421966	     -8.77190600	     37.35614700	     45.94862572	      0.00000000	      0.00000000	     15.90438794	    -12.11896833	     -8.99413447	     57.46577482	     47.58226644	      0.00000000	      0.00000000
     56.71300000	     -2.79572580	     -5.21002299	     -4.51290120	      0.91267889	      0.92241684	      0.54236613	     14.05137232	      5.69653449	    -11.62967537	     24.18455734	     24.18455734	     14.48000593	     -4.09599557	     -2.65578381	     20.92408103	    -14.30126484	     -1.21173588	     64.06776359	     64.06776359	     13.78140558	    -19.37040693	     17.91252212	    -10.68901772	      7.61897051	     -0.09622127	      8.07789778	    -17.78838050	     -8.78768846	     37.43701457	     45.96004867	      0.00000000	      0.00000000	     14.08627072	    -11.49609082	     -7.96123547	     54.09661406	     47.43761857	      0.00000000	      0.00000000
     56.73350000	     -2.33570172	     -5.40150223	     -3.86728347	      0.91167670	      0.92036293	      0.54500554	     13.94314235	      6.02331183	    -11.43519640	     25.59238307	     25.59238307	     15.34790689	     -5.73476296	     -2.46353471	     22.42778765	    -14.57902983	     -0.55776531	     65.71047453	     65.71047453	     14.70353403	    -19.45744854	     19.74148764	    -11.02317706	      7.59824038	     -0.35281906	     10.51907084	    -17.32698139	     -8.67455473	     36.89158304	     45.99141880	      0.00000000	      0.00000000	     12.84939058	    -10.93096729	     -6.51495900	     49.23158854	     47.24421715	      0.00000000	      0.00000000
     56.75400000	     -1.68816702	     -5.65751756	     -3.28121166	      0.91077554	      0.91838920	      0.54748154	     13.55734299	      6.34883715	    -11.46974236	     26.89234767	     26.89234767	     16.15100371	     -6.63495359	     -2.63395615	     23.54931048	    -14.96522629	     -0.12343238	     66.71614845	     66.71614845	     15.34166725	    -19.52167073	     20.24144255	    -11.68527997	      7.57700505	      0.07255745	     12.41489599	    -17.19854498	     -8.66360087	     37.17455102	     45.99278944	      0.00000000	      0.00000000	     11.11521042	    -10.00512604	     -5.75557847	     46.75996106	     47.12994624	      0.00000000	      0.00000000
     56.77450000	     -1.34967953	     -5.68782490	     -2.63598480	      0.90973600	      0.91616069	      0.54964221	     13.57020453	      6.53828262	    -11.24833219	     28.24932041	     28.24932041	     17.27819267	     -8.12954886	     -1.44904538	     24.95847717	    -15.04249077	      0.24394741	     67.15430339	     67.15430339	     16.81182831	    -19.57742373	     23.20399934	    -11.64538558	      7.35632814	      0.30512540	     14.94229525	    -16.70410690	     -8.49541168	     35.59021620	     46.06041998	      0.00000000	      0.00000000	     11.39804372	     -9.29367695	     -2.83952158	     38.01495998	     46.76138449	      0.00000000	      0.00000000
     56.79500000	     -0.95993843	     -5.76262146	     -2.01929178	      0.90871378	      0.91401397	      0.55159045	     13.44478698	      6.72751876	    -11.20922442	     29.46752087	     29.46752087	     18.24901945	     -9.16877877	     -0.75658891	     26.09128712	    -15.23999271	      0.38536471	     66.87608426	     66.87608426	     17.53231601	    -19.60982912	     23.67706649	    -11.89367636	      7.16445280	      0.36970055	     16.90421352	    -16.21245412	     -8.76078134	     36.71466694	     46.03719427	      0.00000000	      0.00000000	      9.99580234	     -8.74989955	     -1.04349560	     33.73899903	     46.50047477	      0.00000000	      0.00000000
     56.81550000	     -0.60514265	     -5.81163732	     -1.46021287	      0.90765190	      0.91202315	      0.55323294	     13.23148297	      6.85056447	    -11.29825824	     30.44286310	     30.44286310	     18.94892520	     -9.91451910	     -0.96377512	     27.08819071	    -15.43281283	      0.32737457	     66.00503213	     66.00503213	     18.06911244	    -19.62440659	     23.68044589	    -12.17038804	      6.94612366	      0.70000818	     18.85110306	    -16.03897408	     -8.81443830	     37.84183822	     46.00819510	      0.00000000	      0.00000000	      7.75600822	     -8.07207625	     -0.67304310	     32.23501828	     46.41358789	      0.00000000	      0.00000000
